<svg width="1440" height="100" viewBox="0 0 1440 100" fill="none" xmlns="http://www.w3.org/2000/svg">
<g clip-path="url(#clip0_317_303)">
<path d="M129.573 46.4637H128V79.5H131.794V63.7729V36.2271H132.627V29.5268H131.887V33.2492H130.499V42.183H129.666L129.573 46.4637ZM157.336 46.3707H159.279V79.4069H157.336H157.151H155.115V42.3691H154.837V42.4621H153.727V30.5505H154.837V33.2492H155.578V37.4369H157.336V46.3707ZM133.738 20.5H134.663V26.5489H135.681V30.5505H136.792V34.6451H138.18V43.0205H140.031V50.3722H141.234V63.5868H145.213V53.6293H147.434V42.183H149.007V33.2492H149.84V29.5268H150.951V26.5489H151.783V20.5H152.709V26.5489H153.079V31.295H151.783V48.0457H149.933V60.7949H147.989V67.4953H139.105H138.735V62.7492H136.884V53.8155H135.774V39.3912H134.385V36.1341H133.83V26.642L133.738 20.5Z" fill="white"/>
<path d="M146.879 74.6609H140.123L143.547 69.3564L146.879 74.6609Z" fill="#00AE9D"/>
<path d="M167.331 46.3708C167.793 46.3708 168.256 46.4639 168.534 46.65C168.904 46.8362 169.089 47.0223 169.367 47.3014C169.552 47.5806 169.737 47.8598 169.829 48.232C169.922 48.6043 169.922 48.8835 169.922 49.2557C169.922 49.721 169.829 50.1863 169.737 50.5585C169.552 50.9308 169.367 51.21 169.182 51.3961C168.904 51.5822 168.626 51.7683 168.256 51.8614C167.886 51.9544 167.516 52.0475 167.053 52.0475H165.943V55.7699H164.092V46.3708H167.331ZM166.775 50.6516C167.146 50.6516 167.423 50.5585 167.701 50.2794C167.886 50.0932 168.071 49.721 168.071 49.2557C168.071 48.7904 167.978 48.4182 167.793 48.139C167.608 47.8598 167.238 47.7667 166.775 47.7667H165.943V50.6516H166.775Z" fill="white"/>
<path d="M176.4 47.9529H173.068V50.0932H176.215V51.6753H173.068V54.1879H176.492V55.7699H171.217V46.3708H176.4V47.9529Z" fill="white"/>
<path d="M183.248 47.9529H181.212V55.7699H179.361V47.9529H177.325V46.3708H183.248V47.9529Z" fill="white"/>
<path d="M187.875 46.3708C188.615 46.3708 189.263 46.557 189.726 46.9292C190.189 47.3014 190.374 47.9529 190.374 48.7904C190.374 49.4418 190.281 49.9071 190.004 50.3724C189.726 50.7447 189.356 51.0238 188.801 51.1169C189.263 51.21 189.633 51.303 189.819 51.5822C190.004 51.8614 190.189 52.2336 190.189 52.6989C190.189 52.885 190.189 53.0712 190.189 53.2573C190.189 53.4434 190.189 53.7226 190.189 53.9087C190.189 54.374 190.189 54.7462 190.281 55.0254C190.374 55.3046 190.466 55.4907 190.651 55.5838V55.6768H188.615C188.523 55.5838 188.43 55.3977 188.43 55.2115C188.43 55.0254 188.43 54.8393 188.338 54.6532L188.245 52.885C188.245 52.5128 188.153 52.2336 187.968 52.0475C187.783 51.8614 187.505 51.7683 187.135 51.7683H186.117V55.7699H184.266V46.3708H187.875ZM187.042 50.4655C187.505 50.4655 187.875 50.3724 188.06 50.1863C188.338 50.0002 188.43 49.6279 188.43 49.0696C188.43 48.2321 187.968 47.7667 187.135 47.7667H186.209V50.4655H187.042Z" fill="white"/>
<path d="M191.855 49.0695C191.947 48.5111 192.04 47.9528 192.317 47.4875C192.502 47.0222 192.872 46.743 193.243 46.4638C193.705 46.1846 194.261 46.0916 194.908 46.0916C195.649 46.0916 196.204 46.1846 196.574 46.4638C196.944 46.743 197.315 47.0222 197.5 47.4875C197.685 47.9528 197.87 48.4181 197.962 49.0695C198.055 49.6278 198.055 50.2792 198.055 51.0237C198.055 51.7682 198.055 52.4196 197.962 52.978C197.87 53.5363 197.777 54.0947 197.5 54.4669C197.315 54.9322 196.944 55.2114 196.574 55.4906C196.111 55.6767 195.556 55.8628 194.908 55.8628C194.168 55.8628 193.613 55.7698 193.243 55.4906C192.872 55.3045 192.502 54.9322 192.317 54.4669C192.132 54.0016 191.947 53.5363 191.855 52.978C191.762 52.4196 191.762 51.7682 191.762 51.0237C191.762 50.3723 191.762 49.7209 191.855 49.0695ZM193.705 52.6988C193.705 53.1641 193.798 53.5363 193.89 53.8155C193.983 54.0947 194.076 54.2808 194.261 54.3739C194.446 54.4669 194.631 54.56 194.908 54.56C195.186 54.56 195.371 54.4669 195.556 54.3739C195.741 54.2808 195.834 54.0016 195.926 53.8155C196.019 53.5363 196.111 53.1641 196.111 52.6988C196.111 52.2335 196.111 51.7682 196.111 51.1168C196.111 50.4654 196.111 50.0001 196.111 49.5348C196.111 49.0695 196.019 48.6972 195.926 48.4181C195.834 48.1389 195.741 47.9528 195.556 47.7666C195.371 47.6736 195.186 47.5805 194.908 47.5805C194.631 47.5805 194.446 47.6736 194.261 47.7666C194.076 47.8597 193.983 48.1389 193.89 48.4181C193.798 48.6972 193.705 49.0695 193.705 49.4417C193.705 49.907 193.705 50.3723 193.705 51.0237C193.613 51.6751 193.613 52.2335 193.705 52.6988Z" fill="white"/>
<path d="M203.978 52.792V46.3708H205.736V55.7699H203.607L201.294 49.1626V55.7699H199.536V46.3708H201.664L203.978 52.792Z" fill="white"/>
<path d="M211.473 46.3708L213.972 55.7699H212.029L211.566 53.8156H209.067L208.605 55.7699H206.661L209.16 46.3708H211.473ZM211.196 52.2336L210.27 48.0459L209.345 52.2336H211.196Z" fill="white"/>
<path d="M216.471 53.071C216.471 53.2571 216.471 53.4432 216.563 53.6293C216.563 53.8154 216.656 54.0016 216.748 54.0946C216.841 54.1877 216.934 54.2807 217.119 54.3738C217.304 54.4669 217.489 54.4669 217.766 54.4669C218.044 54.4669 218.322 54.3738 218.507 54.1877C218.692 54.0016 218.877 53.7224 218.877 53.3501C218.877 53.164 218.877 52.9779 218.784 52.7918C218.692 52.6057 218.599 52.5126 218.507 52.4195C218.414 52.3265 218.229 52.1404 217.952 52.0473C217.766 51.9542 217.489 51.8612 217.119 51.7681C216.656 51.582 216.378 51.4889 216.008 51.3028C215.731 51.1167 215.453 50.9306 215.268 50.7445C215.083 50.5583 214.898 50.2792 214.805 50C214.713 49.7208 214.62 49.3486 214.62 48.9763C214.62 48.0457 214.898 47.3943 215.36 46.929C215.916 46.4637 216.563 46.2776 217.489 46.2776C217.952 46.2776 218.322 46.2776 218.599 46.3706C218.97 46.4637 219.247 46.6498 219.525 46.8359C219.802 47.0221 219.987 47.3012 220.08 47.5804C220.265 47.8596 220.265 48.3249 220.265 48.6971V48.9763H218.692C218.692 48.511 218.599 48.2318 218.414 47.9527C218.229 47.6735 217.952 47.5804 217.674 47.5804C217.489 47.5804 217.304 47.5804 217.119 47.6735C216.934 47.7665 216.841 47.8596 216.748 47.9527C216.656 48.0457 216.563 48.1388 216.563 48.3249C216.563 48.418 216.563 48.6041 216.563 48.6971C216.563 48.9763 216.656 49.2555 216.748 49.4416C216.841 49.6277 217.119 49.8139 217.489 50L218.97 50.6514C219.34 50.8375 219.617 50.9306 219.802 51.1167C219.987 51.3028 220.173 51.4889 220.358 51.6751C220.45 51.8612 220.543 52.0473 220.635 52.3265C220.728 52.6057 220.728 52.7918 220.728 53.071C220.728 54.0946 220.45 54.746 219.895 55.2113C219.34 55.6766 218.507 55.8628 217.489 55.8628C216.471 55.8628 215.638 55.6766 215.175 55.2113C214.713 54.746 214.527 54.0946 214.527 53.2571V52.7918H216.378L216.471 53.071Z" fill="white"/>
<path d="M170.014 59.7715H167.978V67.5885H166.128V59.7715H164.092V58.1895H170.014V59.7715Z" fill="white"/>
<path d="M171.403 60.5159L172.235 65.5411H172.328L173.161 60.5159H175.104L176.03 65.5411L176.955 60.5159H178.621L177.14 67.5884H175.104L174.179 62.5632H174.086L173.253 67.5884H171.125L169.644 60.5159H171.403Z" fill="white"/>
<path d="M181.49 60.5159H179.731V67.5884H181.49V60.5159Z" fill="white"/>
<path d="M184.821 60.516V61.3535C185.006 60.9813 185.284 60.7021 185.562 60.609C185.839 60.4229 186.209 60.3298 186.58 60.3298C187.135 60.3298 187.598 60.516 187.875 60.7951C188.153 61.0743 188.338 61.6327 188.338 62.2841V67.4955H186.58V62.6563C186.58 62.2841 186.487 62.0049 186.395 61.9119C186.302 61.7257 186.117 61.7257 185.839 61.7257C185.191 61.7257 184.914 62.098 184.914 62.9355V67.5885H183.156V60.516H184.821Z" fill="white"/>
<path d="M198.425 59.7715H196.389V67.5885H194.538V59.7715H192.502V58.1895H198.425V59.7715Z" fill="white"/>
<path d="M198.518 62.377C198.61 61.9117 198.795 61.5394 198.98 61.2602C199.165 60.9811 199.443 60.7019 199.813 60.5158C200.183 60.3296 200.554 60.2366 201.109 60.2366C201.664 60.2366 202.127 60.3296 202.497 60.4227C202.867 60.5158 203.145 60.7949 203.33 61.1672C203.515 61.4464 203.7 61.9117 203.793 62.377C203.885 62.8422 203.885 63.4006 203.885 63.959C203.885 64.5173 203.793 65.0757 203.7 65.541C203.607 66.0063 203.422 66.3785 203.237 66.6577C203.052 66.9369 202.775 67.2161 202.404 67.3091C202.034 67.4952 201.664 67.4952 201.109 67.4952C200.554 67.4952 200.091 67.4022 199.721 67.3091C199.35 67.123 199.073 66.9369 198.888 66.6577C198.703 66.3785 198.518 65.9132 198.425 65.4479C198.333 65.1687 198.333 64.6104 198.333 64.052C198.333 63.4006 198.333 62.8422 198.518 62.377ZM200.183 64.9826C200.183 65.2618 200.276 65.541 200.276 65.7271C200.368 65.9132 200.461 66.0993 200.554 66.2855C200.646 66.3785 200.831 66.4716 201.109 66.4716C201.479 66.4716 201.757 66.2855 201.849 65.9132C202.034 65.541 202.034 64.8896 202.034 64.052C202.034 63.2145 201.942 62.5631 201.849 62.1908C201.664 61.8186 201.479 61.6325 201.109 61.6325C200.924 61.6325 200.739 61.7255 200.554 61.8186C200.461 61.9117 200.368 62.0978 200.276 62.2839C200.183 62.47 200.183 62.7492 200.183 63.0284C200.183 63.3076 200.183 63.6798 200.183 64.052C200.091 64.3312 200.183 64.7034 200.183 64.9826Z" fill="white"/>
<path d="M206.569 60.5159L207.402 65.5411L208.327 60.5159H210.27L211.196 65.5411L212.029 60.5159H213.787L212.214 67.5884H210.178L209.252 62.5632L208.42 67.5884H206.291L204.81 60.5159H206.569Z" fill="white"/>
<path d="M216.286 64.8896C216.286 65.0757 216.286 65.2618 216.286 65.541C216.286 65.7271 216.378 65.9132 216.471 66.0993C216.563 66.2855 216.656 66.3785 216.749 66.4716C216.841 66.5647 217.026 66.5646 217.211 66.5646C217.489 66.5646 217.766 66.4716 217.859 66.1924C218.044 66.0063 218.137 65.634 218.137 65.1687H219.71C219.71 66.0063 219.432 66.6577 219.062 67.0299C218.692 67.4952 218.044 67.6814 217.211 67.6814C216.563 67.6814 216.008 67.5883 215.638 67.3091C215.268 67.123 214.99 66.8438 214.805 66.4716C214.62 66.0994 214.527 65.7271 214.527 65.2618C214.527 64.7965 214.435 64.3312 214.435 63.959C214.435 63.4937 214.435 63.0284 214.527 62.5631C214.62 62.0978 214.713 61.7255 214.898 61.3533C215.083 60.9811 215.36 60.7019 215.731 60.5158C216.101 60.3296 216.563 60.2366 217.211 60.2366C217.766 60.2366 218.137 60.3296 218.507 60.5158C218.877 60.7019 219.062 60.888 219.34 61.2602C219.525 61.5394 219.617 61.9117 219.71 62.377C219.802 62.8423 219.802 63.3075 219.802 63.8659V64.2382H216.286V64.8896ZM218.137 62.47C218.137 62.2839 218.044 62.0978 218.044 61.9117C217.952 61.7255 217.859 61.6325 217.766 61.5394C217.674 61.4463 217.489 61.4464 217.304 61.4464C217.119 61.4464 216.934 61.4463 216.841 61.5394C216.749 61.6325 216.656 61.7255 216.563 61.9117C216.471 62.0047 216.471 62.1908 216.378 62.377C216.378 62.5631 216.378 62.7492 216.378 62.8423V63.1214H218.229C218.137 62.9353 218.137 62.7492 218.137 62.47Z" fill="white"/>
<path d="M222.856 60.516V61.4466C223.041 61.0743 223.226 60.7951 223.504 60.609C223.782 60.4229 224.059 60.3298 224.43 60.3298C224.522 60.3298 224.522 60.3298 224.615 60.3298C224.707 60.3298 224.707 60.3298 224.8 60.3298V62.098C224.707 62.098 224.615 62.098 224.522 62.098C224.43 62.098 224.337 62.098 224.244 62.098C224.059 62.098 223.967 62.098 223.782 62.191C223.597 62.191 223.504 62.2841 223.319 62.3772C223.226 62.4702 223.041 62.5633 223.041 62.7494C222.949 62.9355 222.949 63.1216 222.949 63.3078V67.5885H221.191V60.516H222.856Z" fill="white"/>
<path d="M227.113 65.4479C227.113 65.7271 227.206 66.0063 227.391 66.1924C227.576 66.3785 227.761 66.4716 228.131 66.4716C228.409 66.4716 228.594 66.3785 228.779 66.2855C228.964 66.1924 229.057 65.9132 229.057 65.634C229.057 65.4479 228.964 65.2618 228.872 65.0757C228.779 64.9826 228.594 64.8896 228.409 64.7965L227.113 64.3312C226.651 64.1451 226.28 63.8659 226.003 63.5867C225.725 63.3075 225.633 62.8422 225.633 62.377C225.633 62.0978 225.725 61.8186 225.818 61.5394C225.91 61.2602 226.095 61.0741 226.28 60.888C226.465 60.7019 226.743 60.5158 227.113 60.4227C227.483 60.3296 227.854 60.2366 228.316 60.2366C229.149 60.2366 229.704 60.4227 230.167 60.7949C230.537 61.1672 230.722 61.6325 230.722 62.2839V62.5631H229.149C229.149 62.1908 229.057 61.9116 228.964 61.7255C228.872 61.5394 228.686 61.4464 228.316 61.4464C228.131 61.4464 227.854 61.5394 227.761 61.6325C227.576 61.7255 227.483 61.9116 227.483 62.1908C227.483 62.3769 227.576 62.5631 227.669 62.6561C227.761 62.8422 227.946 62.9353 228.316 63.0284L229.427 63.4006C229.982 63.5867 230.352 63.8659 230.63 64.1451C230.908 64.4243 231 64.8896 231 65.4479C231 65.8202 230.908 66.1924 230.815 66.3785C230.722 66.6577 230.537 66.8438 230.26 67.0299C230.075 67.2161 229.797 67.3091 229.427 67.4022C229.149 67.4952 228.779 67.4952 228.409 67.4952C227.946 67.4952 227.483 67.4022 227.113 67.3091C226.743 67.2161 226.558 67.0299 226.28 66.8438C226.095 66.6577 225.91 66.3785 225.91 66.0993C225.818 65.8202 225.818 65.541 225.818 65.1687V64.8896H227.391V65.4479H227.113Z" fill="white"/>
</g>
<path d="M399.147 44.576H401.227L404.091 53.616H404.123L407.051 44.576H409.083L405.179 56H402.955L399.147 44.576ZM410.474 44.576H412.474V56H410.474V44.576ZM416.489 52.192C416.489 52.6293 416.564 53.0027 416.713 53.312C416.862 53.6213 417.07 53.8773 417.337 54.08C417.604 54.272 417.908 54.416 418.249 54.512C418.601 54.5973 418.98 54.64 419.385 54.64C419.822 54.64 420.196 54.592 420.505 54.496C420.814 54.3893 421.065 54.256 421.257 54.096C421.449 53.936 421.588 53.7547 421.673 53.552C421.758 53.3387 421.801 53.1253 421.801 52.912C421.801 52.4747 421.7 52.1547 421.497 51.952C421.305 51.7387 421.092 51.5893 420.857 51.504C420.452 51.3547 419.977 51.216 419.433 51.088C418.9 50.9493 418.238 50.7733 417.449 50.56C416.958 50.432 416.548 50.2667 416.217 50.064C415.897 49.8507 415.641 49.616 415.449 49.36C415.257 49.104 415.118 48.832 415.033 48.544C414.958 48.256 414.921 47.9627 414.921 47.664C414.921 47.088 415.038 46.592 415.273 46.176C415.518 45.7493 415.838 45.3973 416.233 45.12C416.628 44.8427 417.076 44.64 417.577 44.512C418.078 44.3733 418.585 44.304 419.097 44.304C419.694 44.304 420.254 44.384 420.777 44.544C421.31 44.6933 421.774 44.9227 422.169 45.232C422.574 45.5413 422.894 45.9253 423.129 46.384C423.364 46.832 423.481 47.3547 423.481 47.952H421.481C421.428 47.216 421.177 46.6987 420.729 46.4C420.281 46.0907 419.71 45.936 419.017 45.936C418.782 45.936 418.542 45.9627 418.297 46.016C418.052 46.0587 417.828 46.1387 417.625 46.256C417.422 46.3627 417.252 46.512 417.113 46.704C416.985 46.896 416.921 47.136 416.921 47.424C416.921 47.8293 417.044 48.1493 417.289 48.384C417.545 48.608 417.876 48.7787 418.281 48.896C418.324 48.9067 418.489 48.9547 418.777 49.04C419.076 49.1147 419.406 49.2 419.769 49.296C420.132 49.392 420.484 49.488 420.825 49.584C421.177 49.6693 421.428 49.7333 421.577 49.776C421.95 49.8933 422.276 50.0533 422.553 50.256C422.83 50.4587 423.06 50.6933 423.241 50.96C423.433 51.216 423.572 51.4933 423.657 51.792C423.753 52.0907 423.801 52.3893 423.801 52.688C423.801 53.328 423.668 53.8773 423.401 54.336C423.145 54.784 422.804 55.152 422.377 55.44C421.95 55.728 421.465 55.936 420.921 56.064C420.377 56.2027 419.822 56.272 419.257 56.272C418.606 56.272 417.993 56.192 417.417 56.032C416.841 55.872 416.34 55.6267 415.913 55.296C415.486 54.9653 415.145 54.544 414.889 54.032C414.633 53.5093 414.5 52.896 414.489 52.192H416.489ZM425.802 44.576H427.802V56H425.802V44.576ZM429.417 44.576H438.665V46.304H435.033V56H433.033V46.304H429.417V44.576Z" fill="white"/>
<path d="M482.693 44.576H490.917V46.304H484.693V49.296H490.453V50.928H484.693V54.272H491.029V56H482.693V44.576ZM492.029 44.576H494.413L497.005 48.608L499.709 44.576H501.949L498.173 50.08L502.221 56H499.789L496.941 51.632L494.045 56H491.757L495.805 50.08L492.029 44.576ZM503.646 44.576H508.686C509.496 44.576 510.158 44.6933 510.67 44.928C511.182 45.1627 511.576 45.456 511.854 45.808C512.131 46.16 512.318 46.544 512.414 46.96C512.52 47.376 512.574 47.76 512.574 48.112C512.574 48.464 512.52 48.848 512.414 49.264C512.318 49.6693 512.131 50.048 511.854 50.4C511.576 50.752 511.182 51.0453 510.67 51.28C510.158 51.504 509.496 51.616 508.686 51.616H505.646V56H503.646V44.576ZM505.646 49.984H508.574C508.798 49.984 509.027 49.952 509.262 49.888C509.496 49.824 509.71 49.7227 509.902 49.584C510.104 49.4347 510.264 49.2427 510.382 49.008C510.51 48.7627 510.574 48.4587 510.574 48.096C510.574 47.7227 510.52 47.4133 510.414 47.168C510.307 46.9227 510.163 46.7307 509.982 46.592C509.8 46.4427 509.592 46.3413 509.358 46.288C509.123 46.2347 508.872 46.208 508.606 46.208H505.646V49.984ZM514.568 44.576H522.792V46.304H516.568V49.296H522.328V50.928H516.568V54.272H522.904V56H514.568V44.576ZM524.896 44.576H530.352C531.61 44.576 532.554 44.848 533.184 45.392C533.813 45.936 534.128 46.6933 534.128 47.664C534.128 48.208 534.048 48.6613 533.888 49.024C533.728 49.376 533.541 49.664 533.328 49.888C533.114 50.1013 532.901 50.256 532.688 50.352C532.485 50.448 532.336 50.512 532.24 50.544V50.576C532.41 50.5973 532.592 50.6507 532.784 50.736C532.986 50.8213 533.173 50.96 533.344 51.152C533.514 51.3333 533.653 51.5733 533.76 51.872C533.877 52.1707 533.936 52.544 533.936 52.992C533.936 53.664 533.984 54.2773 534.08 54.832C534.186 55.376 534.346 55.7653 534.56 56H532.416C532.266 55.7547 532.176 55.4827 532.144 55.184C532.122 54.8853 532.112 54.5973 532.112 54.32C532.112 53.7973 532.08 53.3493 532.016 52.976C531.952 52.592 531.834 52.2773 531.664 52.032C531.493 51.776 531.258 51.5893 530.96 51.472C530.672 51.3547 530.298 51.296 529.84 51.296H526.896V56H524.896V44.576ZM526.896 49.776H530.176C530.816 49.776 531.301 49.6267 531.632 49.328C531.962 49.0187 532.128 48.56 532.128 47.952C532.128 47.5893 532.074 47.296 531.968 47.072C531.861 46.8373 531.712 46.656 531.52 46.528C531.338 46.4 531.125 46.3147 530.88 46.272C530.645 46.2293 530.4 46.208 530.144 46.208H526.896V49.776ZM536.411 44.576H538.411V56H536.411V44.576ZM541.114 44.576H549.338V46.304H543.114V49.296H548.874V50.928H543.114V54.272H549.45V56H541.114V44.576ZM551.363 44.576H553.475L558.691 52.992H558.723V44.576H560.627V56H558.515L553.315 47.6H553.267V56H551.363V44.576ZM570.951 48.208C570.866 47.8773 570.749 47.5733 570.599 47.296C570.45 47.0187 570.258 46.7787 570.023 46.576C569.789 46.3733 569.511 46.2187 569.191 46.112C568.882 45.9947 568.519 45.936 568.103 45.936C567.495 45.936 566.967 46.0587 566.519 46.304C566.082 46.5493 565.725 46.88 565.447 47.296C565.17 47.7013 564.962 48.1653 564.823 48.688C564.695 49.2107 564.631 49.744 564.631 50.288C564.631 50.832 564.695 51.3653 564.823 51.888C564.962 52.4107 565.17 52.88 565.447 53.296C565.725 53.7013 566.082 54.0267 566.519 54.272C566.967 54.5173 567.495 54.64 568.103 54.64C568.551 54.64 568.946 54.5653 569.287 54.416C569.629 54.256 569.922 54.0427 570.167 53.776C570.413 53.4987 570.605 53.1787 570.743 52.816C570.882 52.4533 570.973 52.064 571.015 51.648H572.967C572.925 52.3307 572.775 52.9547 572.519 53.52C572.274 54.0853 571.938 54.576 571.511 54.992C571.085 55.3973 570.583 55.712 570.007 55.936C569.431 56.16 568.797 56.272 568.103 56.272C567.25 56.272 566.482 56.1173 565.799 55.808C565.127 55.488 564.557 55.056 564.087 54.512C563.618 53.968 563.255 53.3333 562.999 52.608C562.754 51.8827 562.631 51.1093 562.631 50.288C562.631 49.4773 562.754 48.7093 562.999 47.984C563.255 47.2587 563.618 46.624 564.087 46.08C564.557 45.536 565.127 45.104 565.799 44.784C566.482 44.464 567.25 44.304 568.103 44.304C568.743 44.304 569.346 44.3947 569.911 44.576C570.477 44.7467 570.973 45.0027 571.399 45.344C571.837 45.6747 572.189 46.08 572.455 46.56C572.722 47.04 572.887 47.5893 572.951 48.208H570.951ZM575.036 44.576H583.26V46.304H577.036V49.296H582.796V50.928H577.036V54.272H583.372V56H575.036V44.576ZM586.676 52.192C586.676 52.6293 586.751 53.0027 586.9 53.312C587.05 53.6213 587.258 53.8773 587.524 54.08C587.791 54.272 588.095 54.416 588.436 54.512C588.788 54.5973 589.167 54.64 589.572 54.64C590.01 54.64 590.383 54.592 590.692 54.496C591.002 54.3893 591.252 54.256 591.444 54.096C591.636 53.936 591.775 53.7547 591.86 53.552C591.946 53.3387 591.988 53.1253 591.988 52.912C591.988 52.4747 591.887 52.1547 591.684 51.952C591.492 51.7387 591.279 51.5893 591.044 51.504C590.639 51.3547 590.164 51.216 589.62 51.088C589.087 50.9493 588.426 50.7733 587.636 50.56C587.146 50.432 586.735 50.2667 586.404 50.064C586.084 49.8507 585.828 49.616 585.636 49.36C585.444 49.104 585.306 48.832 585.22 48.544C585.146 48.256 585.108 47.9627 585.108 47.664C585.108 47.088 585.226 46.592 585.46 46.176C585.706 45.7493 586.026 45.3973 586.42 45.12C586.815 44.8427 587.263 44.64 587.764 44.512C588.266 44.3733 588.772 44.304 589.284 44.304C589.882 44.304 590.442 44.384 590.964 44.544C591.498 44.6933 591.962 44.9227 592.356 45.232C592.762 45.5413 593.082 45.9253 593.316 46.384C593.551 46.832 593.668 47.3547 593.668 47.952H591.668C591.615 47.216 591.364 46.6987 590.916 46.4C590.468 46.0907 589.898 45.936 589.204 45.936C588.97 45.936 588.73 45.9627 588.484 46.016C588.239 46.0587 588.015 46.1387 587.812 46.256C587.61 46.3627 587.439 46.512 587.3 46.704C587.172 46.896 587.108 47.136 587.108 47.424C587.108 47.8293 587.231 48.1493 587.476 48.384C587.732 48.608 588.063 48.7787 588.468 48.896C588.511 48.9067 588.676 48.9547 588.964 49.04C589.263 49.1147 589.594 49.2 589.956 49.296C590.319 49.392 590.671 49.488 591.012 49.584C591.364 49.6693 591.615 49.7333 591.764 49.776C592.138 49.8933 592.463 50.0533 592.74 50.256C593.018 50.4587 593.247 50.6933 593.428 50.96C593.62 51.216 593.759 51.4933 593.844 51.792C593.94 52.0907 593.988 52.3893 593.988 52.688C593.988 53.328 593.855 53.8773 593.588 54.336C593.332 54.784 592.991 55.152 592.564 55.44C592.138 55.728 591.652 55.936 591.108 56.064C590.564 56.2027 590.01 56.272 589.444 56.272C588.794 56.272 588.18 56.192 587.604 56.032C587.028 55.872 586.527 55.6267 586.1 55.296C585.674 54.9653 585.332 54.544 585.076 54.032C584.82 53.5093 584.687 52.896 584.676 52.192H586.676Z" fill="white"/>
<path d="M641.71 44.576H643.838L648.238 56H646.094L645.022 52.976H640.462L639.39 56H637.325L641.71 44.576ZM641.006 51.456H644.494L642.782 46.544H642.734L641.006 51.456ZM651.575 49.36H654.839C655.319 49.36 655.719 49.2267 656.039 48.96C656.359 48.6827 656.519 48.288 656.519 47.776C656.519 47.2 656.375 46.7947 656.087 46.56C655.799 46.3253 655.383 46.208 654.839 46.208H651.575V49.36ZM649.575 44.576H655.127C656.151 44.576 656.973 44.8107 657.591 45.28C658.21 45.7493 658.519 46.4587 658.519 47.408C658.519 47.984 658.375 48.48 658.087 48.896C657.81 49.3013 657.41 49.616 656.887 49.84V49.872C657.591 50.0213 658.125 50.3573 658.487 50.88C658.85 51.392 659.031 52.0373 659.031 52.816C659.031 53.264 658.951 53.6853 658.791 54.08C658.631 54.464 658.381 54.8 658.039 55.088C657.698 55.3653 657.261 55.5893 656.727 55.76C656.194 55.92 655.559 56 654.823 56H649.575V44.576ZM651.575 54.368H655.111C655.719 54.368 656.189 54.2133 656.519 53.904C656.861 53.584 657.031 53.136 657.031 52.56C657.031 51.9947 656.861 51.5627 656.519 51.264C656.189 50.9547 655.719 50.8 655.111 50.8H651.575V54.368ZM665.955 45.936C665.347 45.936 664.819 46.0587 664.371 46.304C663.934 46.5493 663.576 46.88 663.299 47.296C663.022 47.7013 662.814 48.1653 662.675 48.688C662.547 49.2107 662.483 49.744 662.483 50.288C662.483 50.832 662.547 51.3653 662.675 51.888C662.814 52.4107 663.022 52.88 663.299 53.296C663.576 53.7013 663.934 54.0267 664.371 54.272C664.819 54.5173 665.347 54.64 665.955 54.64C666.563 54.64 667.086 54.5173 667.523 54.272C667.971 54.0267 668.334 53.7013 668.611 53.296C668.888 52.88 669.091 52.4107 669.219 51.888C669.358 51.3653 669.427 50.832 669.427 50.288C669.427 49.744 669.358 49.2107 669.219 48.688C669.091 48.1653 668.888 47.7013 668.611 47.296C668.334 46.88 667.971 46.5493 667.523 46.304C667.086 46.0587 666.563 45.936 665.955 45.936ZM665.955 44.304C666.808 44.304 667.571 44.464 668.243 44.784C668.926 45.104 669.502 45.536 669.971 46.08C670.44 46.624 670.798 47.2587 671.043 47.984C671.299 48.7093 671.427 49.4773 671.427 50.288C671.427 51.1093 671.299 51.8827 671.043 52.608C670.798 53.3333 670.44 53.968 669.971 54.512C669.502 55.056 668.926 55.488 668.243 55.808C667.571 56.1173 666.808 56.272 665.955 56.272C665.102 56.272 664.334 56.1173 663.651 55.808C662.979 55.488 662.408 55.056 661.939 54.512C661.47 53.968 661.107 53.3333 660.851 52.608C660.606 51.8827 660.483 51.1093 660.483 50.288C660.483 49.4773 660.606 48.7093 660.851 47.984C661.107 47.2587 661.47 46.624 661.939 46.08C662.408 45.536 662.979 45.104 663.651 44.784C664.334 44.464 665.102 44.304 665.955 44.304ZM673.369 44.576H675.369V51.232C675.369 51.616 675.385 52.0053 675.417 52.4C675.46 52.7947 675.567 53.152 675.737 53.472C675.919 53.7813 676.185 54.0373 676.537 54.24C676.9 54.4427 677.407 54.544 678.057 54.544C678.708 54.544 679.209 54.4427 679.561 54.24C679.924 54.0373 680.191 53.7813 680.361 53.472C680.543 53.152 680.649 52.7947 680.681 52.4C680.724 52.0053 680.745 51.616 680.745 51.232V44.576H682.745V51.888C682.745 52.624 682.633 53.264 682.409 53.808C682.185 54.352 681.865 54.8107 681.449 55.184C681.044 55.5467 680.553 55.8187 679.977 56C679.401 56.1813 678.761 56.272 678.057 56.272C677.353 56.272 676.713 56.1813 676.137 56C675.561 55.8187 675.065 55.5467 674.649 55.184C674.244 54.8107 673.929 54.352 673.705 53.808C673.481 53.264 673.369 52.624 673.369 51.888V44.576ZM684.206 44.576H693.454V46.304H689.822V56H687.822V46.304H684.206V44.576Z" fill="white"/>
<path d="M747.301 56H746.021L745.717 54.656C745.184 55.264 744.651 55.6853 744.117 55.92C743.584 56.1547 742.971 56.272 742.277 56.272C741.424 56.272 740.656 56.1173 739.973 55.808C739.301 55.488 738.731 55.056 738.261 54.512C737.792 53.968 737.429 53.3333 737.173 52.608C736.928 51.8827 736.805 51.1093 736.805 50.288C736.805 49.4773 736.928 48.7093 737.173 47.984C737.429 47.2587 737.792 46.624 738.261 46.08C738.731 45.536 739.301 45.104 739.973 44.784C740.656 44.464 741.424 44.304 742.277 44.304C742.896 44.304 743.483 44.3893 744.037 44.56C744.603 44.72 745.104 44.9653 745.541 45.296C745.979 45.616 746.341 46.0213 746.629 46.512C746.917 47.0027 747.099 47.568 747.173 48.208H745.221C745.168 47.8347 745.051 47.5093 744.869 47.232C744.699 46.944 744.48 46.704 744.213 46.512C743.947 46.32 743.648 46.176 743.317 46.08C742.987 45.984 742.64 45.936 742.277 45.936C741.669 45.936 741.141 46.0587 740.693 46.304C740.256 46.5493 739.899 46.88 739.621 47.296C739.344 47.7013 739.136 48.1653 738.997 48.688C738.869 49.2107 738.805 49.744 738.805 50.288C738.805 50.832 738.869 51.3653 738.997 51.888C739.136 52.4107 739.344 52.88 739.621 53.296C739.899 53.7013 740.256 54.0267 740.693 54.272C741.141 54.5173 741.669 54.64 742.277 54.64C742.789 54.6507 743.243 54.5867 743.637 54.448C744.032 54.2987 744.363 54.0907 744.629 53.824C744.907 53.5467 745.115 53.2107 745.253 52.816C745.392 52.4213 745.467 51.984 745.477 51.504H742.437V49.984H747.301V56ZM749.724 44.576H751.724V56H749.724V44.576ZM754.427 44.576H762.315V46.304H756.427V49.296H761.595V50.928H756.427V56H754.427V44.576ZM763.073 44.576H772.321V46.304H768.689V56H766.689V46.304H763.073V44.576ZM779.911 52.192C779.911 52.6293 779.985 53.0027 780.135 53.312C780.284 53.6213 780.492 53.8773 780.759 54.08C781.025 54.272 781.329 54.416 781.671 54.512C782.023 54.5973 782.401 54.64 782.807 54.64C783.244 54.64 783.617 54.592 783.927 54.496C784.236 54.3893 784.487 54.256 784.679 54.096C784.871 53.936 785.009 53.7547 785.095 53.552C785.18 53.3387 785.223 53.1253 785.223 52.912C785.223 52.4747 785.121 52.1547 784.919 51.952C784.727 51.7387 784.513 51.5893 784.279 51.504C783.873 51.3547 783.399 51.216 782.855 51.088C782.321 50.9493 781.66 50.7733 780.871 50.56C780.38 50.432 779.969 50.2667 779.639 50.064C779.319 49.8507 779.063 49.616 778.871 49.36C778.679 49.104 778.54 48.832 778.455 48.544C778.38 48.256 778.343 47.9627 778.343 47.664C778.343 47.088 778.46 46.592 778.695 46.176C778.94 45.7493 779.26 45.3973 779.655 45.12C780.049 44.8427 780.497 44.64 780.999 44.512C781.5 44.3733 782.007 44.304 782.519 44.304C783.116 44.304 783.676 44.384 784.199 44.544C784.732 44.6933 785.196 44.9227 785.591 45.232C785.996 45.5413 786.316 45.9253 786.551 46.384C786.785 46.832 786.903 47.3547 786.903 47.952H784.903C784.849 47.216 784.599 46.6987 784.151 46.4C783.703 46.0907 783.132 45.936 782.439 45.936C782.204 45.936 781.964 45.9627 781.719 46.016C781.473 46.0587 781.249 46.1387 781.047 46.256C780.844 46.3627 780.673 46.512 780.535 46.704C780.407 46.896 780.343 47.136 780.343 47.424C780.343 47.8293 780.465 48.1493 780.711 48.384C780.967 48.608 781.297 48.7787 781.703 48.896C781.745 48.9067 781.911 48.9547 782.199 49.04C782.497 49.1147 782.828 49.2 783.191 49.296C783.553 49.392 783.905 49.488 784.247 49.584C784.599 49.6693 784.849 49.7333 784.999 49.776C785.372 49.8933 785.697 50.0533 785.975 50.256C786.252 50.4587 786.481 50.6933 786.663 50.96C786.855 51.216 786.993 51.4933 787.079 51.792C787.175 52.0907 787.223 52.3893 787.223 52.688C787.223 53.328 787.089 53.8773 786.823 54.336C786.567 54.784 786.225 55.152 785.799 55.44C785.372 55.728 784.887 55.936 784.343 56.064C783.799 56.2027 783.244 56.272 782.679 56.272C782.028 56.272 781.415 56.192 780.839 56.032C780.263 55.872 779.761 55.6267 779.335 55.296C778.908 54.9653 778.567 54.544 778.311 54.032C778.055 53.5093 777.921 52.896 777.911 52.192H779.911ZM789.176 44.576H791.176V49.12H796.376V44.576H798.376V56H796.376V50.848H791.176V56H789.176V44.576ZM805.885 45.936C805.277 45.936 804.749 46.0587 804.301 46.304C803.863 46.5493 803.506 46.88 803.229 47.296C802.951 47.7013 802.743 48.1653 802.605 48.688C802.477 49.2107 802.413 49.744 802.413 50.288C802.413 50.832 802.477 51.3653 802.605 51.888C802.743 52.4107 802.951 52.88 803.229 53.296C803.506 53.7013 803.863 54.0267 804.301 54.272C804.749 54.5173 805.277 54.64 805.885 54.64C806.493 54.64 807.015 54.5173 807.453 54.272C807.901 54.0267 808.263 53.7013 808.541 53.296C808.818 52.88 809.021 52.4107 809.149 51.888C809.287 51.3653 809.357 50.832 809.357 50.288C809.357 49.744 809.287 49.2107 809.149 48.688C809.021 48.1653 808.818 47.7013 808.541 47.296C808.263 46.88 807.901 46.5493 807.453 46.304C807.015 46.0587 806.493 45.936 805.885 45.936ZM805.885 44.304C806.738 44.304 807.501 44.464 808.173 44.784C808.855 45.104 809.431 45.536 809.901 46.08C810.37 46.624 810.727 47.2587 810.973 47.984C811.229 48.7093 811.357 49.4773 811.357 50.288C811.357 51.1093 811.229 51.8827 810.973 52.608C810.727 53.3333 810.37 53.968 809.901 54.512C809.431 55.056 808.855 55.488 808.173 55.808C807.501 56.1173 806.738 56.272 805.885 56.272C805.031 56.272 804.263 56.1173 803.581 55.808C802.909 55.488 802.338 55.056 801.869 54.512C801.399 53.968 801.037 53.3333 800.781 52.608C800.535 51.8827 800.413 51.1093 800.413 50.288C800.413 49.4773 800.535 48.7093 800.781 47.984C801.037 47.2587 801.399 46.624 801.869 46.08C802.338 45.536 802.909 45.104 803.581 44.784C804.263 44.464 805.031 44.304 805.885 44.304ZM813.427 44.576H818.467C819.278 44.576 819.939 44.6933 820.451 44.928C820.963 45.1627 821.358 45.456 821.635 45.808C821.912 46.16 822.099 46.544 822.195 46.96C822.302 47.376 822.355 47.76 822.355 48.112C822.355 48.464 822.302 48.848 822.195 49.264C822.099 49.6693 821.912 50.048 821.635 50.4C821.358 50.752 820.963 51.0453 820.451 51.28C819.939 51.504 819.278 51.616 818.467 51.616H815.427V56H813.427V44.576ZM815.427 49.984H818.355C818.579 49.984 818.808 49.952 819.043 49.888C819.278 49.824 819.491 49.7227 819.683 49.584C819.886 49.4347 820.046 49.2427 820.163 49.008C820.291 48.7627 820.355 48.4587 820.355 48.096C820.355 47.7227 820.302 47.4133 820.195 47.168C820.088 46.9227 819.944 46.7307 819.763 46.592C819.582 46.4427 819.374 46.3413 819.139 46.288C818.904 46.2347 818.654 46.208 818.387 46.208H815.427V49.984Z" fill="white"/>
<rect x="1003" y="31" width="198" height="38" rx="17" fill="#00AE9D"/>
<path d="M1045.86 49.53H1049.53C1050.07 49.53 1050.52 49.38 1050.88 49.08C1051.24 48.768 1051.42 48.324 1051.42 47.748C1051.42 47.1 1051.26 46.644 1050.94 46.38C1050.61 46.116 1050.14 45.984 1049.53 45.984H1045.86V49.53ZM1043.61 44.148H1049.86C1051.01 44.148 1051.93 44.412 1052.63 44.94C1053.32 45.468 1053.67 46.266 1053.67 47.334C1053.67 47.982 1053.51 48.54 1053.19 49.008C1052.87 49.464 1052.42 49.818 1051.84 50.07V50.106C1052.63 50.274 1053.23 50.652 1053.64 51.24C1054.04 51.816 1054.25 52.542 1054.25 53.418C1054.25 53.922 1054.16 54.396 1053.98 54.84C1053.8 55.272 1053.52 55.65 1053.13 55.974C1052.75 56.286 1052.26 56.538 1051.66 56.73C1051.06 56.91 1050.34 57 1049.51 57H1043.61V44.148ZM1045.86 55.164H1049.84C1050.52 55.164 1051.05 54.99 1051.42 54.642C1051.81 54.282 1052 53.778 1052 53.13C1052 52.494 1051.81 52.008 1051.42 51.672C1051.05 51.324 1050.52 51.15 1049.84 51.15H1045.86V55.164ZM1056.39 44.148H1058.64V51.636C1058.64 52.068 1058.66 52.506 1058.69 52.95C1058.74 53.394 1058.86 53.796 1059.05 54.156C1059.26 54.504 1059.56 54.792 1059.95 55.02C1060.36 55.248 1060.93 55.362 1061.66 55.362C1062.4 55.362 1062.96 55.248 1063.36 55.02C1063.76 54.792 1064.06 54.504 1064.26 54.156C1064.46 53.796 1064.58 53.394 1064.62 52.95C1064.66 52.506 1064.69 52.068 1064.69 51.636V44.148H1066.94V52.374C1066.94 53.202 1066.81 53.922 1066.56 54.534C1066.31 55.146 1065.95 55.662 1065.48 56.082C1065.02 56.49 1064.47 56.796 1063.82 57C1063.18 57.204 1062.46 57.306 1061.66 57.306C1060.87 57.306 1060.15 57.204 1059.5 57C1058.86 56.796 1058.3 56.49 1057.83 56.082C1057.37 55.662 1057.02 55.146 1056.77 54.534C1056.52 53.922 1056.39 53.202 1056.39 52.374V44.148ZM1073.12 51.96L1068.3 44.148H1070.91L1074.31 49.908L1077.66 44.148H1080.18L1075.37 51.96V57H1073.12V51.96ZM1085.73 44.148H1096.13V46.092H1092.05V57H1089.8V46.092H1085.73V44.148ZM1097.87 44.148H1100.12V57H1097.87V44.148ZM1111.81 48.234C1111.71 47.862 1111.58 47.52 1111.41 47.208C1111.25 46.896 1111.03 46.626 1110.77 46.398C1110.5 46.17 1110.19 45.996 1109.83 45.876C1109.48 45.744 1109.07 45.678 1108.61 45.678C1107.92 45.678 1107.33 45.816 1106.82 46.092C1106.33 46.368 1105.93 46.74 1105.62 47.208C1105.31 47.664 1105.07 48.186 1104.92 48.774C1104.77 49.362 1104.7 49.962 1104.7 50.574C1104.7 51.186 1104.77 51.786 1104.92 52.374C1105.07 52.962 1105.31 53.49 1105.62 53.958C1105.93 54.414 1106.33 54.78 1106.82 55.056C1107.33 55.332 1107.92 55.47 1108.61 55.47C1109.11 55.47 1109.55 55.386 1109.94 55.218C1110.32 55.038 1110.65 54.798 1110.93 54.498C1111.2 54.186 1111.42 53.826 1111.58 53.418C1111.73 53.01 1111.83 52.572 1111.88 52.104H1114.08C1114.03 52.872 1113.86 53.574 1113.57 54.21C1113.3 54.846 1112.92 55.398 1112.44 55.866C1111.96 56.322 1111.4 56.676 1110.75 56.928C1110.1 57.18 1109.39 57.306 1108.61 57.306C1107.65 57.306 1106.78 57.132 1106.01 56.784C1105.26 56.424 1104.62 55.938 1104.09 55.326C1103.56 54.714 1103.15 54 1102.86 53.184C1102.59 52.368 1102.45 51.498 1102.45 50.574C1102.45 49.662 1102.59 48.798 1102.86 47.982C1103.15 47.166 1103.56 46.452 1104.09 45.84C1104.62 45.228 1105.26 44.742 1106.01 44.382C1106.78 44.022 1107.65 43.842 1108.61 43.842C1109.33 43.842 1110 43.944 1110.64 44.148C1111.28 44.34 1111.83 44.628 1112.31 45.012C1112.81 45.384 1113.2 45.84 1113.5 46.38C1113.8 46.92 1113.99 47.538 1114.06 48.234H1111.81ZM1116.37 44.148H1118.62V49.998L1124.35 44.148H1127.12L1121.99 49.278L1127.48 57H1124.67L1120.46 50.862L1118.62 52.68V57H1116.37V44.148ZM1128.95 44.148H1138.2V46.092H1131.2V49.458H1137.68V51.294H1131.2V55.056H1138.33V57H1128.95V44.148ZM1139.31 44.148H1149.71V46.092H1145.63V57H1143.38V46.092H1139.31V44.148ZM1152.93 52.716C1152.93 53.208 1153.01 53.628 1153.18 53.976C1153.35 54.324 1153.58 54.612 1153.88 54.84C1154.18 55.056 1154.53 55.218 1154.91 55.326C1155.31 55.422 1155.73 55.47 1156.19 55.47C1156.68 55.47 1157.1 55.416 1157.45 55.308C1157.8 55.188 1158.08 55.038 1158.29 54.858C1158.51 54.678 1158.67 54.474 1158.76 54.246C1158.86 54.006 1158.91 53.766 1158.91 53.526C1158.91 53.034 1158.79 52.674 1158.56 52.446C1158.35 52.206 1158.11 52.038 1157.84 51.942C1157.39 51.774 1156.85 51.618 1156.24 51.474C1155.64 51.318 1154.9 51.12 1154.01 50.88C1153.46 50.736 1153 50.55 1152.62 50.322C1152.26 50.082 1151.98 49.818 1151.76 49.53C1151.54 49.242 1151.39 48.936 1151.29 48.612C1151.21 48.288 1151.17 47.958 1151.17 47.622C1151.17 46.974 1151.3 46.416 1151.56 45.948C1151.84 45.468 1152.2 45.072 1152.64 44.76C1153.09 44.448 1153.59 44.22 1154.15 44.076C1154.72 43.92 1155.29 43.842 1155.86 43.842C1156.54 43.842 1157.17 43.932 1157.75 44.112C1158.35 44.28 1158.88 44.538 1159.32 44.886C1159.78 45.234 1160.14 45.666 1160.4 46.182C1160.66 46.686 1160.8 47.274 1160.8 47.946H1158.55C1158.49 47.118 1158.2 46.536 1157.7 46.2C1157.2 45.852 1156.55 45.678 1155.77 45.678C1155.51 45.678 1155.24 45.708 1154.96 45.768C1154.69 45.816 1154.44 45.906 1154.21 46.038C1153.98 46.158 1153.79 46.326 1153.63 46.542C1153.49 46.758 1153.42 47.028 1153.42 47.352C1153.42 47.808 1153.55 48.168 1153.83 48.432C1154.12 48.684 1154.49 48.876 1154.95 49.008C1154.99 49.02 1155.18 49.074 1155.5 49.17C1155.84 49.254 1156.21 49.35 1156.62 49.458C1157.03 49.566 1157.42 49.674 1157.81 49.782C1158.2 49.878 1158.49 49.95 1158.65 49.998C1159.07 50.13 1159.44 50.31 1159.75 50.538C1160.06 50.766 1160.32 51.03 1160.53 51.33C1160.74 51.618 1160.9 51.93 1160.99 52.266C1161.1 52.602 1161.16 52.938 1161.16 53.274C1161.16 53.994 1161.01 54.612 1160.71 55.128C1160.42 55.632 1160.03 56.046 1159.55 56.37C1159.07 56.694 1158.53 56.928 1157.92 57.072C1157.3 57.228 1156.68 57.306 1156.04 57.306C1155.31 57.306 1154.62 57.216 1153.97 57.036C1153.33 56.856 1152.76 56.58 1152.28 56.208C1151.8 55.836 1151.42 55.362 1151.13 54.786C1150.84 54.198 1150.69 53.508 1150.68 52.716H1152.93Z" fill="white"/>
<circle cx="1390.67" cy="48.6666" r="9.33333" stroke="white" stroke-width="2"/>
<path d="M1402.67 60.6667L1398.67 56.6667" stroke="white" stroke-width="2" stroke-linecap="round"/>
<defs>
<clipPath id="clip0_317_303">
<rect width="103" height="59" fill="white" transform="translate(128 20.5)"/>
</clipPath>
</defs>
</svg>
