<svg width="618" height="59" viewBox="0 0 618 59" fill="none" xmlns="http://www.w3.org/2000/svg">
<path d="M12.784 18.864L11.44 28.464H19.376L20.72 18.864H12.784ZM6.384 32.816H0.176V28.464H7.024L8.368 18.864H1.84V14.512H8.944L10.8 1.392H15.216L13.36 14.512H21.296L23.152 1.392H27.568L25.712 14.512H31.408V18.864H25.136L23.792 28.464H29.616V32.816H23.152L21.296 46H16.88L18.736 32.816H10.8L8.944 46H4.528L6.384 32.816ZM39.1005 12.912H44.5405V17.392H44.6685C45.5645 15.5573 46.9725 14.2347 48.8925 13.424C50.8125 12.5707 52.9245 12.144 55.2285 12.144C57.7885 12.144 60.0072 12.6133 61.8845 13.552C63.8045 14.4907 65.3832 15.7707 66.6205 17.392C67.9005 18.9707 68.8605 20.8053 69.5005 22.896C70.1405 24.9867 70.4605 27.2053 70.4605 29.552C70.4605 31.8987 70.1405 34.1173 69.5005 36.208C68.9032 38.2987 67.9645 40.1333 66.6845 41.712C65.4472 43.248 63.8685 44.464 61.9485 45.36C60.0712 46.256 57.8738 46.704 55.3565 46.704C54.5458 46.704 53.6285 46.6187 52.6045 46.448C51.6232 46.2773 50.6418 46 49.6605 45.616C48.6792 45.232 47.7405 44.72 46.8445 44.08C45.9912 43.3973 45.2658 42.5653 44.6685 41.584H44.5405V58.608H39.1005V12.912ZM64.7005 29.168C64.7005 27.632 64.4872 26.1387 64.0605 24.688C63.6765 23.1947 63.0578 21.872 62.2045 20.72C61.3938 19.568 60.3272 18.6507 59.0045 17.968C57.7245 17.2853 56.2098 16.944 54.4605 16.944C52.6258 16.944 51.0685 17.3067 49.7885 18.032C48.5085 18.7573 47.4632 19.7173 46.6525 20.912C45.8418 22.064 45.2445 23.3867 44.8605 24.88C44.5192 26.3733 44.3485 27.888 44.3485 29.424C44.3485 31.0453 44.5405 32.624 44.9245 34.16C45.3085 35.6533 45.9058 36.976 46.7165 38.128C47.5698 39.28 48.6578 40.2187 49.9805 40.944C51.3032 41.6267 52.9032 41.968 54.7805 41.968C56.6578 41.968 58.2152 41.6053 59.4525 40.88C60.7325 40.1547 61.7565 39.1947 62.5245 38C63.2925 36.8053 63.8472 35.44 64.1885 33.904C64.5298 32.368 64.7005 30.7893 64.7005 29.168ZM101.072 26.288C100.987 25.008 100.688 23.792 100.176 22.64C99.7067 21.488 99.0453 20.5067 98.192 19.696C97.3813 18.8427 96.4 18.1813 95.248 17.712C94.1387 17.2 92.9013 16.944 91.536 16.944C90.128 16.944 88.848 17.2 87.696 17.712C86.5867 18.1813 85.6267 18.8427 84.816 19.696C84.0053 20.5493 83.3653 21.552 82.896 22.704C82.4267 23.8133 82.1493 25.008 82.064 26.288H101.072ZM106.32 35.504C105.595 39.216 103.995 42.0107 101.52 43.888C99.0453 45.7653 95.9307 46.704 92.176 46.704C89.5307 46.704 87.2267 46.2773 85.264 45.424C83.344 44.5707 81.7227 43.376 80.4 41.84C79.0773 40.304 78.0747 38.4693 77.392 36.336C76.752 34.2027 76.3893 31.8773 76.304 29.36C76.304 26.8427 76.688 24.5387 77.456 22.448C78.224 20.3573 79.2907 18.544 80.656 17.008C82.064 15.472 83.7067 14.2773 85.584 13.424C87.504 12.5707 89.5947 12.144 91.856 12.144C94.8 12.144 97.232 12.7627 99.152 14C101.115 15.1947 102.672 16.7307 103.824 18.608C105.019 20.4853 105.829 22.5333 106.256 24.752C106.725 26.9707 106.917 29.0827 106.832 31.088H82.064C82.0213 32.5387 82.192 33.9253 82.576 35.248C82.96 36.528 83.5787 37.68 84.432 38.704C85.2853 39.6853 86.3733 40.4747 87.696 41.072C89.0187 41.6693 90.576 41.968 92.368 41.968C94.672 41.968 96.5493 41.4347 98 40.368C99.4933 39.3013 100.475 37.68 100.944 35.504H106.32ZM121.273 12.912H127.865V17.712H121.273V38.256C121.273 38.896 121.316 39.408 121.401 39.792C121.529 40.176 121.742 40.4747 122.041 40.688C122.34 40.9013 122.745 41.0507 123.257 41.136C123.812 41.1787 124.516 41.2 125.369 41.2H127.865V46H123.705C122.297 46 121.081 45.9147 120.057 45.744C119.076 45.5307 118.265 45.168 117.625 44.656C117.028 44.144 116.58 43.4187 116.281 42.48C115.982 41.5413 115.833 40.304 115.833 38.768V17.712H110.201V12.912H115.833V2.992H121.273V12.912ZM134.967 12.912H140.087V19.888H140.215C141.537 17.2 143.159 15.216 145.079 13.936C146.999 12.656 149.431 12.0587 152.375 12.144V17.904C150.199 17.904 148.343 18.2027 146.807 18.8C145.271 19.3973 144.033 20.272 143.095 21.424C142.156 22.576 141.473 23.984 141.047 25.648C140.62 27.2693 140.407 29.1467 140.407 31.28V46H134.967V12.912ZM160.564 29.488C160.564 31.4933 160.82 33.2853 161.332 34.864C161.887 36.4 162.633 37.7013 163.572 38.768C164.511 39.792 165.599 40.5813 166.836 41.136C168.116 41.6907 169.46 41.968 170.868 41.968C172.276 41.968 173.599 41.6907 174.836 41.136C176.116 40.5813 177.225 39.792 178.164 38.768C179.103 37.7013 179.828 36.4 180.34 34.864C180.895 33.2853 181.172 31.4933 181.172 29.488C181.172 27.4827 180.895 25.712 180.34 24.176C179.828 22.5973 179.103 21.2747 178.164 20.208C177.225 19.1413 176.116 18.3307 174.836 17.776C173.599 17.2213 172.276 16.944 170.868 16.944C169.46 16.944 168.116 17.2213 166.836 17.776C165.599 18.3307 164.511 19.1413 163.572 20.208C162.633 21.2747 161.887 22.5973 161.332 24.176C160.82 25.712 160.564 27.4827 160.564 29.488ZM154.804 29.488C154.804 27.056 155.145 24.7947 155.828 22.704C156.511 20.5707 157.535 18.736 158.9 17.2C160.265 15.6213 161.951 14.384 163.956 13.488C165.961 12.592 168.265 12.144 170.868 12.144C173.513 12.144 175.817 12.592 177.78 13.488C179.785 14.384 181.471 15.6213 182.836 17.2C184.201 18.736 185.225 20.5707 185.908 22.704C186.591 24.7947 186.932 27.056 186.932 29.488C186.932 31.92 186.591 34.1813 185.908 36.272C185.225 38.3627 184.201 40.1973 182.836 41.776C181.471 43.312 179.785 44.528 177.78 45.424C175.817 46.2773 173.513 46.704 170.868 46.704C168.265 46.704 165.961 46.2773 163.956 45.424C161.951 44.528 160.265 43.312 158.9 41.776C157.535 40.1973 156.511 38.3627 155.828 36.272C155.145 34.1813 154.804 31.92 154.804 29.488ZM194.596 12.912H199.716V18.16H199.844C202.105 14.1493 205.689 12.144 210.596 12.144C212.772 12.144 214.585 12.4427 216.036 13.04C217.487 13.6373 218.66 14.4693 219.556 15.536C220.452 16.6027 221.071 17.8827 221.412 19.376C221.796 20.8267 221.988 22.448 221.988 24.24V46H216.548V23.6C216.548 21.552 215.951 19.9307 214.756 18.736C213.561 17.5413 211.919 16.944 209.828 16.944C208.164 16.944 206.713 17.2 205.476 17.712C204.281 18.224 203.279 18.9493 202.468 19.888C201.657 20.8267 201.039 21.936 200.612 23.216C200.228 24.4533 200.036 25.8187 200.036 27.312V46H194.596V12.912ZM260.721 45.872C259.782 46.4267 258.481 46.704 256.817 46.704C255.409 46.704 254.278 46.32 253.425 45.552C252.614 44.7413 252.209 43.44 252.209 41.648C250.715 43.44 248.966 44.7413 246.961 45.552C244.998 46.32 242.865 46.704 240.561 46.704C239.067 46.704 237.659 46.5333 236.337 46.192C235.014 45.8933 233.841 45.3813 232.817 44.656C231.835 43.888 231.046 42.928 230.449 41.776C229.894 40.5813 229.617 39.152 229.617 37.488C229.617 35.6107 229.937 34.0747 230.577 32.88C231.217 31.6853 232.049 30.7253 233.073 30C234.139 29.232 235.334 28.656 236.657 28.272C238.022 27.888 239.409 27.568 240.817 27.312C242.31 27.0133 243.718 26.8 245.041 26.672C246.406 26.5013 247.601 26.288 248.625 26.032C249.649 25.7333 250.459 25.328 251.057 24.816C251.654 24.2613 251.953 23.472 251.953 22.448C251.953 21.2533 251.718 20.2933 251.249 19.568C250.822 18.8427 250.246 18.288 249.521 17.904C248.838 17.52 248.049 17.264 247.153 17.136C246.299 17.008 245.446 16.944 244.593 16.944C242.289 16.944 240.369 17.392 238.833 18.288C237.297 19.1413 236.465 20.784 236.337 23.216H230.897C230.982 21.168 231.409 19.44 232.177 18.032C232.945 16.624 233.969 15.4933 235.249 14.64C236.529 13.744 238.001 13.104 239.665 12.72C241.329 12.336 243.078 12.144 244.913 12.144C246.406 12.144 247.878 12.2507 249.329 12.464C250.822 12.6773 252.166 13.1253 253.361 13.808C254.555 14.448 255.515 15.3653 256.241 16.56C256.966 17.7547 257.329 19.312 257.329 21.232V38.256C257.329 39.536 257.393 40.4747 257.521 41.072C257.691 41.6693 258.203 41.968 259.057 41.968C259.526 41.968 260.081 41.8613 260.721 41.648V45.872ZM251.889 28.912C251.206 29.424 250.31 29.808 249.201 30.064C248.091 30.2773 246.918 30.4693 245.681 30.64C244.486 30.768 243.27 30.9387 242.033 31.152C240.795 31.3227 239.686 31.6213 238.705 32.048C237.723 32.4747 236.913 33.0933 236.273 33.904C235.675 34.672 235.377 35.7387 235.377 37.104C235.377 38 235.547 38.768 235.889 39.408C236.273 40.0053 236.742 40.496 237.297 40.88C237.894 41.264 238.577 41.5413 239.345 41.712C240.155 41.8827 240.966 41.968 241.777 41.968C243.569 41.968 245.105 41.7333 246.385 41.264C247.665 40.752 248.71 40.1333 249.521 39.408C250.331 38.64 250.929 37.8293 251.313 36.976C251.697 36.08 251.889 35.248 251.889 34.48V28.912ZM270.362 35.568C270.404 36.7627 270.682 37.7867 271.194 38.64C271.706 39.4507 272.367 40.112 273.178 40.624C274.031 41.0933 274.97 41.4347 275.994 41.648C277.06 41.8613 278.148 41.968 279.258 41.968C280.111 41.968 281.007 41.904 281.946 41.776C282.884 41.648 283.738 41.4133 284.506 41.072C285.316 40.7307 285.978 40.24 286.49 39.6C287.002 38.9173 287.258 38.064 287.258 37.04C287.258 35.632 286.724 34.5653 285.658 33.84C284.591 33.1147 283.247 32.5387 281.626 32.112C280.047 31.6427 278.319 31.2373 276.442 30.896C274.564 30.512 272.815 30 271.194 29.36C269.615 28.6773 268.292 27.7387 267.226 26.544C266.159 25.3493 265.626 23.6853 265.626 21.552C265.626 19.888 265.988 18.4587 266.714 17.264C267.482 16.0693 268.442 15.1093 269.594 14.384C270.788 13.616 272.111 13.0613 273.562 12.72C275.055 12.336 276.527 12.144 277.978 12.144C279.855 12.144 281.583 12.3147 283.162 12.656C284.74 12.9547 286.127 13.5093 287.322 14.32C288.559 15.088 289.54 16.1547 290.266 17.52C290.991 18.8427 291.418 20.5067 291.546 22.512H286.106C286.02 21.4453 285.743 20.5707 285.274 19.888C284.804 19.1627 284.207 18.5867 283.482 18.16C282.756 17.7333 281.946 17.4347 281.05 17.264C280.196 17.0507 279.322 16.944 278.426 16.944C277.615 16.944 276.783 17.008 275.93 17.136C275.119 17.264 274.372 17.4987 273.69 17.84C273.007 18.1387 272.452 18.5653 272.026 19.12C271.599 19.632 271.385 20.3147 271.385 21.168C271.385 22.1067 271.705 22.896 272.345 23.536C273.028 24.1333 273.882 24.6453 274.906 25.072C275.93 25.456 277.082 25.7973 278.362 26.096C279.642 26.352 280.922 26.6293 282.202 26.928C283.567 27.2267 284.89 27.5893 286.17 28.016C287.492 28.4427 288.644 29.0187 289.626 29.744C290.65 30.4267 291.46 31.3013 292.058 32.368C292.698 33.4347 293.018 34.7573 293.018 36.336C293.018 38.3413 292.591 40.0053 291.738 41.328C290.927 42.6507 289.839 43.7173 288.474 44.528C287.151 45.3387 285.636 45.8933 283.93 46.192C282.266 46.5333 280.602 46.704 278.938 46.704C277.103 46.704 275.354 46.512 273.69 46.128C272.026 45.744 270.554 45.1253 269.274 44.272C267.994 43.376 266.97 42.224 266.202 40.816C265.434 39.3653 265.007 37.616 264.922 35.568H270.362ZM307.836 12.912H314.428V17.712H307.836V38.256C307.836 38.896 307.878 39.408 307.964 39.792C308.092 40.176 308.305 40.4747 308.604 40.688C308.902 40.9013 309.308 41.0507 309.82 41.136C310.374 41.1787 311.078 41.2 311.932 41.2H314.428V46H310.268C308.86 46 307.644 45.9147 306.62 45.744C305.638 45.5307 304.828 45.168 304.188 44.656C303.59 44.144 303.142 43.4187 302.844 42.48C302.545 41.5413 302.396 40.304 302.396 38.768V17.712H296.764V12.912H302.396V2.992H307.836V12.912ZM354.489 46H348.729L342.009 19.696H341.881L335.225 46H329.337L318.713 12.912H324.729L332.217 39.984H332.345L339.001 12.912H344.953L351.865 39.984H351.993L359.417 12.912H365.049L354.489 46ZM377.231 6.96H371.791V0.303997H377.231V6.96ZM371.791 12.912H377.231V46H371.791V12.912ZM386.909 12.912H392.029V18.16H392.157C394.418 14.1493 398.002 12.144 402.909 12.144C405.085 12.144 406.898 12.4427 408.349 13.04C409.799 13.6373 410.973 14.4693 411.869 15.536C412.765 16.6027 413.383 17.8827 413.725 19.376C414.109 20.8267 414.301 22.448 414.301 24.24V46H408.861V23.6C408.861 21.552 408.263 19.9307 407.069 18.736C405.874 17.5413 404.231 16.944 402.141 16.944C400.477 16.944 399.026 17.2 397.789 17.712C396.594 18.224 395.591 18.9493 394.781 19.888C393.97 20.8267 393.351 21.936 392.925 23.216C392.541 24.4533 392.349 25.8187 392.349 27.312V46H386.909V12.912ZM431.273 12.912H437.865V17.712H431.273V38.256C431.273 38.896 431.316 39.408 431.401 39.792C431.529 40.176 431.742 40.4747 432.041 40.688C432.34 40.9013 432.745 41.0507 433.257 41.136C433.812 41.1787 434.516 41.2 435.369 41.2H437.865V46H433.705C432.297 46 431.081 45.9147 430.057 45.744C429.076 45.5307 428.265 45.168 427.625 44.656C427.028 44.144 426.58 43.4187 426.281 42.48C425.982 41.5413 425.833 40.304 425.833 38.768V17.712H420.201V12.912H425.833V2.992H431.273V12.912ZM449.127 29.488C449.127 31.4933 449.383 33.2853 449.895 34.864C450.449 36.4 451.196 37.7013 452.135 38.768C453.073 39.792 454.161 40.5813 455.399 41.136C456.679 41.6907 458.023 41.968 459.431 41.968C460.839 41.968 462.161 41.6907 463.399 41.136C464.679 40.5813 465.788 39.792 466.727 38.768C467.665 37.7013 468.391 36.4 468.903 34.864C469.457 33.2853 469.735 31.4933 469.735 29.488C469.735 27.4827 469.457 25.712 468.903 24.176C468.391 22.5973 467.665 21.2747 466.727 20.208C465.788 19.1413 464.679 18.3307 463.399 17.776C462.161 17.2213 460.839 16.944 459.431 16.944C458.023 16.944 456.679 17.2213 455.399 17.776C454.161 18.3307 453.073 19.1413 452.135 20.208C451.196 21.2747 450.449 22.5973 449.895 24.176C449.383 25.712 449.127 27.4827 449.127 29.488ZM443.367 29.488C443.367 27.056 443.708 24.7947 444.391 22.704C445.073 20.5707 446.097 18.736 447.463 17.2C448.828 15.6213 450.513 14.384 452.519 13.488C454.524 12.592 456.828 12.144 459.431 12.144C462.076 12.144 464.38 12.592 466.343 13.488C468.348 14.384 470.033 15.6213 471.399 17.2C472.764 18.736 473.788 20.5707 474.471 22.704C475.153 24.7947 475.495 27.056 475.495 29.488C475.495 31.92 475.153 34.1813 474.471 36.272C473.788 38.3627 472.764 40.1973 471.399 41.776C470.033 43.312 468.348 44.528 466.343 45.424C464.38 46.2773 462.076 46.704 459.431 46.704C456.828 46.704 454.524 46.2773 452.519 45.424C450.513 44.528 448.828 43.312 447.463 41.776C446.097 40.1973 445.073 38.3627 444.391 36.272C443.708 34.1813 443.367 31.92 443.367 29.488ZM515.927 46H510.167L503.447 19.696H503.319L496.663 46H490.775L480.151 12.912H486.167L493.655 39.984H493.783L500.439 12.912H506.391L513.303 39.984H513.431L520.855 12.912H526.487L515.927 46ZM555.885 26.288C555.799 25.008 555.501 23.792 554.989 22.64C554.519 21.488 553.858 20.5067 553.005 19.696C552.194 18.8427 551.213 18.1813 550.061 17.712C548.951 17.2 547.714 16.944 546.349 16.944C544.941 16.944 543.661 17.2 542.509 17.712C541.399 18.1813 540.439 18.8427 539.629 19.696C538.818 20.5493 538.178 21.552 537.709 22.704C537.239 23.8133 536.962 25.008 536.877 26.288H555.885ZM561.132 35.504C560.407 39.216 558.807 42.0107 556.333 43.888C553.858 45.7653 550.743 46.704 546.989 46.704C544.343 46.704 542.039 46.2773 540.077 45.424C538.157 44.5707 536.535 43.376 535.213 41.84C533.89 40.304 532.887 38.4693 532.205 36.336C531.565 34.2027 531.202 31.8773 531.117 29.36C531.117 26.8427 531.501 24.5387 532.269 22.448C533.037 20.3573 534.103 18.544 535.469 17.008C536.877 15.472 538.519 14.2773 540.397 13.424C542.317 12.5707 544.407 12.144 546.669 12.144C549.613 12.144 552.045 12.7627 553.965 14C555.927 15.1947 557.485 16.7307 558.637 18.608C559.831 20.4853 560.642 22.5333 561.069 24.752C561.538 26.9707 561.73 29.0827 561.645 31.088H536.877C536.834 32.5387 537.005 33.9253 537.389 35.248C537.773 36.528 538.391 37.68 539.245 38.704C540.098 39.6853 541.186 40.4747 542.509 41.072C543.831 41.6693 545.389 41.968 547.181 41.968C549.485 41.968 551.362 41.4347 552.813 40.368C554.306 39.3013 555.287 37.68 555.757 35.504H561.132ZM568.342 12.912H573.462V19.888H573.59C574.912 17.2 576.534 15.216 578.454 13.936C580.374 12.656 582.806 12.0587 585.75 12.144V17.904C583.574 17.904 581.718 18.2027 580.182 18.8C578.646 19.3973 577.408 20.272 576.47 21.424C575.531 22.576 574.848 23.984 574.422 25.648C573.995 27.2693 573.782 29.1467 573.782 31.28V46H568.342V12.912ZM594.424 35.568C594.467 36.7627 594.744 37.7867 595.256 38.64C595.768 39.4507 596.429 40.112 597.24 40.624C598.093 41.0933 599.032 41.4347 600.056 41.648C601.123 41.8613 602.211 41.968 603.32 41.968C604.173 41.968 605.069 41.904 606.008 41.776C606.947 41.648 607.8 41.4133 608.568 41.072C609.379 40.7307 610.04 40.24 610.552 39.6C611.064 38.9173 611.32 38.064 611.32 37.04C611.32 35.632 610.787 34.5653 609.72 33.84C608.653 33.1147 607.309 32.5387 605.688 32.112C604.109 31.6427 602.381 31.2373 600.504 30.896C598.627 30.512 596.877 30 595.256 29.36C593.677 28.6773 592.355 27.7387 591.288 26.544C590.221 25.3493 589.688 23.6853 589.688 21.552C589.688 19.888 590.051 18.4587 590.776 17.264C591.544 16.0693 592.504 15.1093 593.656 14.384C594.851 13.616 596.173 13.0613 597.624 12.72C599.117 12.336 600.589 12.144 602.04 12.144C603.917 12.144 605.645 12.3147 607.224 12.656C608.803 12.9547 610.189 13.5093 611.384 14.32C612.621 15.088 613.603 16.1547 614.328 17.52C615.053 18.8427 615.48 20.5067 615.608 22.512H610.168C610.083 21.4453 609.805 20.5707 609.336 19.888C608.867 19.1627 608.269 18.5867 607.544 18.16C606.819 17.7333 606.008 17.4347 605.112 17.264C604.259 17.0507 603.384 16.944 602.488 16.944C601.677 16.944 600.845 17.008 599.992 17.136C599.181 17.264 598.435 17.4987 597.752 17.84C597.069 18.1387 596.515 18.5653 596.088 19.12C595.661 19.632 595.448 20.3147 595.448 21.168C595.448 22.1067 595.768 22.896 596.408 23.536C597.091 24.1333 597.944 24.6453 598.968 25.072C599.992 25.456 601.144 25.7973 602.424 26.096C603.704 26.352 604.984 26.6293 606.264 26.928C607.629 27.2267 608.952 27.5893 610.232 28.016C611.555 28.4427 612.707 29.0187 613.688 29.744C614.712 30.4267 615.523 31.3013 616.12 32.368C616.76 33.4347 617.08 34.7573 617.08 36.336C617.08 38.3413 616.653 40.0053 615.8 41.328C614.989 42.6507 613.901 43.7173 612.536 44.528C611.213 45.3387 609.699 45.8933 607.992 46.192C606.328 46.5333 604.664 46.704 603 46.704C601.165 46.704 599.416 46.512 597.752 46.128C596.088 45.744 594.616 45.1253 593.336 44.272C592.056 43.376 591.032 42.224 590.264 40.816C589.496 39.3653 589.069 37.616 588.984 35.568H594.424Z" fill="white"/>
</svg>
